<mxfile host="app.diagrams.net" agent="Mozilla/5.0 (Windows NT 10.0; Win64; x64) AppleWebKit/537.36 (KHTML, like Gecko) Chrome/134.0.0.0 Safari/537.36" version="26.1.1">
  <diagram name="Page-1" id="Ezr3lK1BZChRI7_YOY6R">
    <mxGraphModel dx="1434" dy="738" grid="1" gridSize="10" guides="1" tooltips="1" connect="1" arrows="1" fold="1" page="1" pageScale="1" pageWidth="827" pageHeight="1169" math="0" shadow="0">
      <root>
        <mxCell id="0" />
        <mxCell id="1" parent="0" />
        <mxCell id="ozpLbiX_fu5x1f-NspbY-40" value="user" style="swimlane;childLayout=stackLayout;horizontal=1;startSize=50;horizontalStack=0;rounded=1;fontSize=14;fontStyle=0;strokeWidth=2;resizeParent=0;resizeLast=1;shadow=0;dashed=0;align=center;arcSize=4;whiteSpace=wrap;html=1;" parent="1" vertex="1">
          <mxGeometry x="120" y="620" width="120" height="280" as="geometry" />
        </mxCell>
        <mxCell id="ozpLbiX_fu5x1f-NspbY-41" value="&lt;span style=&quot;font-weight: 700; text-wrap-mode: wrap; text-decoration-line: underline;&quot;&gt;id&lt;/span&gt;&lt;div&gt;&lt;div&gt;&lt;span style=&quot;text-wrap-mode: wrap;&quot;&gt;username&lt;/span&gt;&lt;/div&gt;&lt;div&gt;&lt;span style=&quot;text-wrap-mode: wrap;&quot;&gt;password&lt;/span&gt;&lt;span style=&quot;text-wrap-mode: wrap;&quot;&gt;&lt;/span&gt;&lt;/div&gt;&lt;div&gt;&lt;span style=&quot;text-wrap-mode: wrap;&quot;&gt;email&lt;/span&gt;&lt;span style=&quot;text-wrap-mode: wrap;&quot;&gt;&lt;/span&gt;&lt;/div&gt;&lt;div&gt;&lt;span style=&quot;text-wrap-mode: wrap;&quot;&gt;phone&lt;/span&gt;&lt;span style=&quot;text-wrap-mode: wrap;&quot;&gt;&lt;/span&gt;&lt;/div&gt;&lt;div&gt;&lt;span style=&quot;text-wrap-mode: wrap;&quot;&gt;first_name&lt;/span&gt;&lt;span style=&quot;text-wrap-mode: wrap;&quot;&gt;&lt;/span&gt;&lt;/div&gt;&lt;div&gt;&lt;span style=&quot;text-wrap-mode: wrap;&quot;&gt;last_name&lt;/span&gt;&lt;/div&gt;&lt;div&gt;&lt;span style=&quot;text-wrap-mode: wrap;&quot;&gt;gender&lt;/span&gt;&lt;/div&gt;&lt;div&gt;&lt;span style=&quot;text-wrap-mode: wrap;&quot;&gt;birth&lt;/span&gt;&lt;/div&gt;&lt;div&gt;&lt;span style=&quot;text-wrap-mode: wrap;&quot;&gt;introduction&lt;/span&gt;&lt;/div&gt;&lt;div&gt;&lt;span style=&quot;text-wrap-mode: wrap;&quot;&gt;location&lt;/span&gt;&lt;/div&gt;&lt;div&gt;&lt;span style=&quot;text-wrap-mode: wrap;&quot;&gt;photo&lt;/span&gt;&lt;span style=&quot;text-wrap-mode: wrap;&quot;&gt;&lt;/span&gt;&lt;/div&gt;&lt;div&gt;&lt;span style=&quot;text-wrap-mode: wrap;&quot;&gt;status&lt;/span&gt;&lt;/div&gt;&lt;div&gt;&lt;span style=&quot;background-color: transparent; color: light-dark(rgb(0, 0, 0), rgb(255, 255, 255));&quot;&gt;date_joined&lt;/span&gt;&lt;/div&gt;&lt;div&gt;last_login&amp;nbsp;&lt;/div&gt;&lt;div&gt;&amp;nbsp;&lt;span style=&quot;text-wrap-mode: wrap;&quot;&gt;&lt;/span&gt;&lt;/div&gt;&lt;/div&gt;" style="align=left;strokeColor=none;fillColor=none;spacingLeft=4;fontSize=12;verticalAlign=top;resizable=0;rotatable=0;part=1;html=1;" parent="ozpLbiX_fu5x1f-NspbY-40" vertex="1">
          <mxGeometry y="50" width="120" height="230" as="geometry" />
        </mxCell>
        <mxCell id="r9TCEUBcotQIVBJyixz0-10" value="project" style="swimlane;childLayout=stackLayout;horizontal=1;startSize=50;horizontalStack=0;rounded=1;fontSize=14;fontStyle=0;strokeWidth=2;resizeParent=0;resizeLast=1;shadow=0;dashed=0;align=center;arcSize=4;whiteSpace=wrap;html=1;" parent="1" vertex="1">
          <mxGeometry x="480" y="650" width="110" height="190" as="geometry" />
        </mxCell>
        <mxCell id="r9TCEUBcotQIVBJyixz0-11" value="&lt;span style=&quot;text-wrap-mode: wrap; text-decoration-line: underline; font-weight: 700;&quot;&gt;id&lt;/span&gt;&lt;div&gt;user_id&lt;/div&gt;&lt;div&gt;file_id&lt;/div&gt;&lt;div&gt;title&lt;/div&gt;&lt;div&gt;description&lt;/div&gt;&lt;div&gt;diagram_type&lt;/div&gt;&lt;div&gt;&lt;code&gt;echarts_config&lt;/code&gt;&lt;/div&gt;&lt;div&gt;&lt;code&gt;create&lt;/code&gt;&lt;/div&gt;&lt;div&gt;&lt;code&gt;update&lt;/code&gt;&lt;/div&gt;" style="align=left;strokeColor=none;fillColor=none;spacingLeft=4;fontSize=12;verticalAlign=top;resizable=0;rotatable=0;part=1;html=1;" parent="r9TCEUBcotQIVBJyixz0-10" vertex="1">
          <mxGeometry y="50" width="110" height="140" as="geometry" />
        </mxCell>
        <mxCell id="r9TCEUBcotQIVBJyixz0-13" value="file" style="swimlane;childLayout=stackLayout;horizontal=1;startSize=50;horizontalStack=0;rounded=1;fontSize=14;fontStyle=0;strokeWidth=2;resizeParent=0;resizeLast=1;shadow=0;dashed=0;align=center;arcSize=4;whiteSpace=wrap;html=1;" parent="1" vertex="1">
          <mxGeometry x="790" y="650" width="80" height="190" as="geometry" />
        </mxCell>
        <mxCell id="r9TCEUBcotQIVBJyixz0-14" value="&lt;span style=&quot;text-wrap-mode: wrap; text-decoration-line: underline; font-weight: 700;&quot;&gt;id&lt;/span&gt;&lt;div&gt;user_id&lt;/div&gt;&lt;div&gt;&lt;span style=&quot;background-color: transparent; color: light-dark(rgb(0, 0, 0), rgb(255, 255, 255));&quot;&gt;url&lt;/span&gt;&lt;/div&gt;&lt;div&gt;&lt;span style=&quot;background-color: transparent; color: light-dark(rgb(0, 0, 0), rgb(255, 255, 255));&quot;&gt;title&lt;/span&gt;&lt;/div&gt;&lt;div&gt;description&lt;/div&gt;&lt;div&gt;&lt;span style=&quot;background-color: transparent; color: light-dark(rgb(0, 0, 0), rgb(255, 255, 255));&quot;&gt;upload&lt;/span&gt;&lt;/div&gt;&lt;div&gt;&lt;br&gt;&lt;/div&gt;" style="align=left;strokeColor=none;fillColor=none;spacingLeft=4;fontSize=12;verticalAlign=top;resizable=0;rotatable=0;part=1;html=1;" parent="r9TCEUBcotQIVBJyixz0-13" vertex="1">
          <mxGeometry y="50" width="80" height="140" as="geometry" />
        </mxCell>
        <mxCell id="r9TCEUBcotQIVBJyixz0-40" value="display chart" style="shape=rhombus;perimeter=rhombusPerimeter;whiteSpace=wrap;html=1;align=center;" parent="1" vertex="1">
          <mxGeometry x="630" y="730" width="120" height="60" as="geometry" />
        </mxCell>
        <mxCell id="r9TCEUBcotQIVBJyixz0-184" style="edgeStyle=orthogonalEdgeStyle;rounded=0;orthogonalLoop=1;jettySize=auto;html=1;entryX=0.5;entryY=1;entryDx=0;entryDy=0;" parent="1" source="r9TCEUBcotQIVBJyixz0-65" target="r9TCEUBcotQIVBJyixz0-14" edge="1">
          <mxGeometry relative="1" as="geometry" />
        </mxCell>
        <mxCell id="r9TCEUBcotQIVBJyixz0-201" value="n" style="edgeLabel;html=1;align=center;verticalAlign=middle;resizable=0;points=[];" parent="r9TCEUBcotQIVBJyixz0-184" vertex="1" connectable="0">
          <mxGeometry x="0.8051" y="-2" relative="1" as="geometry">
            <mxPoint as="offset" />
          </mxGeometry>
        </mxCell>
        <mxCell id="I7wylD6VoUPrIZBw90Hd-22" style="edgeStyle=orthogonalEdgeStyle;rounded=0;orthogonalLoop=1;jettySize=auto;html=1;entryX=0.5;entryY=1;entryDx=0;entryDy=0;" edge="1" parent="1" source="r9TCEUBcotQIVBJyixz0-65" target="r9TCEUBcotQIVBJyixz0-11">
          <mxGeometry relative="1" as="geometry" />
        </mxCell>
        <mxCell id="I7wylD6VoUPrIZBw90Hd-23" value="n" style="edgeLabel;html=1;align=center;verticalAlign=middle;resizable=0;points=[];" vertex="1" connectable="0" parent="I7wylD6VoUPrIZBw90Hd-22">
          <mxGeometry y="1" relative="1" as="geometry">
            <mxPoint as="offset" />
          </mxGeometry>
        </mxCell>
        <mxCell id="r9TCEUBcotQIVBJyixz0-65" value="add/edit/delete" style="shape=rhombus;perimeter=rhombusPerimeter;whiteSpace=wrap;html=1;align=center;" parent="1" vertex="1">
          <mxGeometry x="475" y="890" width="120" height="60" as="geometry" />
        </mxCell>
        <mxCell id="r9TCEUBcotQIVBJyixz0-181" style="edgeStyle=orthogonalEdgeStyle;rounded=0;orthogonalLoop=1;jettySize=auto;html=1;entryX=0.5;entryY=0;entryDx=0;entryDy=0;" parent="1" source="r9TCEUBcotQIVBJyixz0-100" target="r9TCEUBcotQIVBJyixz0-13" edge="1">
          <mxGeometry relative="1" as="geometry" />
        </mxCell>
        <mxCell id="r9TCEUBcotQIVBJyixz0-191" value="m" style="edgeLabel;html=1;align=center;verticalAlign=middle;resizable=0;points=[];" parent="r9TCEUBcotQIVBJyixz0-181" vertex="1" connectable="0">
          <mxGeometry x="0.8214" y="1" relative="1" as="geometry">
            <mxPoint as="offset" />
          </mxGeometry>
        </mxCell>
        <mxCell id="I7wylD6VoUPrIZBw90Hd-21" style="edgeStyle=orthogonalEdgeStyle;rounded=0;orthogonalLoop=1;jettySize=auto;html=1;entryX=0.5;entryY=0;entryDx=0;entryDy=0;" edge="1" parent="1" source="r9TCEUBcotQIVBJyixz0-100" target="r9TCEUBcotQIVBJyixz0-10">
          <mxGeometry relative="1" as="geometry" />
        </mxCell>
        <mxCell id="I7wylD6VoUPrIZBw90Hd-27" value="m" style="edgeLabel;html=1;align=center;verticalAlign=middle;resizable=0;points=[];" vertex="1" connectable="0" parent="I7wylD6VoUPrIZBw90Hd-21">
          <mxGeometry x="-0.2" y="-1" relative="1" as="geometry">
            <mxPoint as="offset" />
          </mxGeometry>
        </mxCell>
        <mxCell id="r9TCEUBcotQIVBJyixz0-100" value="add/edit/delete" style="shape=rhombus;perimeter=rhombusPerimeter;whiteSpace=wrap;html=1;align=center;" parent="1" vertex="1">
          <mxGeometry x="475" y="540" width="120" height="60" as="geometry" />
        </mxCell>
        <mxCell id="r9TCEUBcotQIVBJyixz0-202" style="edgeStyle=orthogonalEdgeStyle;rounded=0;orthogonalLoop=1;jettySize=auto;html=1;entryX=0;entryY=0.5;entryDx=0;entryDy=0;" parent="1" source="r9TCEUBcotQIVBJyixz0-11" target="r9TCEUBcotQIVBJyixz0-40" edge="1">
          <mxGeometry relative="1" as="geometry">
            <Array as="points">
              <mxPoint x="520" y="760" />
              <mxPoint x="520" y="760" />
            </Array>
          </mxGeometry>
        </mxCell>
        <mxCell id="I7wylD6VoUPrIZBw90Hd-28" value="n" style="edgeLabel;html=1;align=center;verticalAlign=middle;resizable=0;points=[];" vertex="1" connectable="0" parent="r9TCEUBcotQIVBJyixz0-202">
          <mxGeometry x="-0.2571" y="2" relative="1" as="geometry">
            <mxPoint as="offset" />
          </mxGeometry>
        </mxCell>
        <mxCell id="r9TCEUBcotQIVBJyixz0-203" style="edgeStyle=orthogonalEdgeStyle;rounded=0;orthogonalLoop=1;jettySize=auto;html=1;entryX=0;entryY=0.429;entryDx=0;entryDy=0;entryPerimeter=0;" parent="1" source="r9TCEUBcotQIVBJyixz0-40" target="r9TCEUBcotQIVBJyixz0-14" edge="1">
          <mxGeometry relative="1" as="geometry" />
        </mxCell>
        <mxCell id="r9TCEUBcotQIVBJyixz0-205" value="1" style="edgeLabel;html=1;align=center;verticalAlign=middle;resizable=0;points=[];" parent="r9TCEUBcotQIVBJyixz0-203" vertex="1" connectable="0">
          <mxGeometry x="-0.2516" y="-1" relative="1" as="geometry">
            <mxPoint as="offset" />
          </mxGeometry>
        </mxCell>
        <mxCell id="I7wylD6VoUPrIZBw90Hd-19" style="edgeStyle=orthogonalEdgeStyle;rounded=0;orthogonalLoop=1;jettySize=auto;html=1;entryX=0;entryY=0.5;entryDx=0;entryDy=0;" edge="1" parent="1" source="I7wylD6VoUPrIZBw90Hd-4" target="r9TCEUBcotQIVBJyixz0-100">
          <mxGeometry relative="1" as="geometry">
            <Array as="points">
              <mxPoint x="380" y="570" />
            </Array>
          </mxGeometry>
        </mxCell>
        <mxCell id="I7wylD6VoUPrIZBw90Hd-26" value="n" style="edgeLabel;html=1;align=center;verticalAlign=middle;resizable=0;points=[];" vertex="1" connectable="0" parent="I7wylD6VoUPrIZBw90Hd-19">
          <mxGeometry x="0.2333" y="-2" relative="1" as="geometry">
            <mxPoint as="offset" />
          </mxGeometry>
        </mxCell>
        <mxCell id="I7wylD6VoUPrIZBw90Hd-4" value="admin" style="swimlane;childLayout=stackLayout;horizontal=1;startSize=50;horizontalStack=0;rounded=1;fontSize=14;fontStyle=0;strokeWidth=2;resizeParent=0;resizeLast=1;shadow=0;dashed=0;align=center;arcSize=4;whiteSpace=wrap;html=1;" vertex="1" parent="1">
          <mxGeometry x="320" y="630" width="120" height="80" as="geometry" />
        </mxCell>
        <mxCell id="I7wylD6VoUPrIZBw90Hd-5" value="&lt;span style=&quot;text-wrap-mode: wrap;&quot;&gt;group:admin&lt;/span&gt;" style="align=left;strokeColor=none;fillColor=none;spacingLeft=4;fontSize=12;verticalAlign=top;resizable=0;rotatable=0;part=1;html=1;" vertex="1" parent="I7wylD6VoUPrIZBw90Hd-4">
          <mxGeometry y="50" width="120" height="30" as="geometry" />
        </mxCell>
        <mxCell id="I7wylD6VoUPrIZBw90Hd-6" value="customer" style="swimlane;childLayout=stackLayout;horizontal=1;startSize=50;horizontalStack=0;rounded=1;fontSize=14;fontStyle=0;strokeWidth=2;resizeParent=0;resizeLast=1;shadow=0;dashed=0;align=center;arcSize=4;whiteSpace=wrap;html=1;" vertex="1" parent="1">
          <mxGeometry x="320" y="810" width="120" height="80" as="geometry" />
        </mxCell>
        <mxCell id="I7wylD6VoUPrIZBw90Hd-7" value="&lt;span style=&quot;text-wrap-mode: wrap;&quot;&gt;group:&lt;/span&gt;&lt;span style=&quot;font-size: 14px; text-align: center; text-wrap-mode: wrap;&quot;&gt;customer&lt;/span&gt;" style="align=left;strokeColor=none;fillColor=none;spacingLeft=4;fontSize=12;verticalAlign=top;resizable=0;rotatable=0;part=1;html=1;" vertex="1" parent="I7wylD6VoUPrIZBw90Hd-6">
          <mxGeometry y="50" width="120" height="30" as="geometry" />
        </mxCell>
        <mxCell id="I7wylD6VoUPrIZBw90Hd-12" style="edgeStyle=orthogonalEdgeStyle;rounded=0;orthogonalLoop=1;jettySize=auto;html=1;entryX=0;entryY=0.5;entryDx=0;entryDy=0;" edge="1" parent="1" source="ozpLbiX_fu5x1f-NspbY-41" target="I7wylD6VoUPrIZBw90Hd-4">
          <mxGeometry relative="1" as="geometry">
            <Array as="points">
              <mxPoint x="270" y="670" />
              <mxPoint x="270" y="670" />
            </Array>
          </mxGeometry>
        </mxCell>
        <mxCell id="I7wylD6VoUPrIZBw90Hd-13" style="edgeStyle=orthogonalEdgeStyle;rounded=0;orthogonalLoop=1;jettySize=auto;html=1;entryX=0;entryY=0.5;entryDx=0;entryDy=0;" edge="1" parent="1" source="ozpLbiX_fu5x1f-NspbY-41" target="I7wylD6VoUPrIZBw90Hd-6">
          <mxGeometry relative="1" as="geometry">
            <Array as="points">
              <mxPoint x="260" y="850" />
              <mxPoint x="260" y="850" />
            </Array>
          </mxGeometry>
        </mxCell>
        <mxCell id="I7wylD6VoUPrIZBw90Hd-16" style="edgeStyle=orthogonalEdgeStyle;rounded=0;orthogonalLoop=1;jettySize=auto;html=1;" edge="1" parent="1" source="I7wylD6VoUPrIZBw90Hd-14" target="I7wylD6VoUPrIZBw90Hd-6">
          <mxGeometry relative="1" as="geometry" />
        </mxCell>
        <mxCell id="I7wylD6VoUPrIZBw90Hd-18" value="m" style="edgeLabel;html=1;align=center;verticalAlign=middle;resizable=0;points=[];" vertex="1" connectable="0" parent="I7wylD6VoUPrIZBw90Hd-16">
          <mxGeometry x="0.6333" y="2" relative="1" as="geometry">
            <mxPoint x="8" as="offset" />
          </mxGeometry>
        </mxCell>
        <mxCell id="I7wylD6VoUPrIZBw90Hd-14" value="add/edit/delete" style="shape=rhombus;perimeter=rhombusPerimeter;whiteSpace=wrap;html=1;align=center;" vertex="1" parent="1">
          <mxGeometry x="320" y="730" width="120" height="60" as="geometry" />
        </mxCell>
        <mxCell id="I7wylD6VoUPrIZBw90Hd-15" style="edgeStyle=orthogonalEdgeStyle;rounded=0;orthogonalLoop=1;jettySize=auto;html=1;" edge="1" parent="1" source="I7wylD6VoUPrIZBw90Hd-5" target="I7wylD6VoUPrIZBw90Hd-14">
          <mxGeometry relative="1" as="geometry" />
        </mxCell>
        <mxCell id="I7wylD6VoUPrIZBw90Hd-33" value="n" style="edgeLabel;html=1;align=center;verticalAlign=middle;resizable=0;points=[];" vertex="1" connectable="0" parent="I7wylD6VoUPrIZBw90Hd-15">
          <mxGeometry x="0.5" relative="1" as="geometry">
            <mxPoint x="10" y="5" as="offset" />
          </mxGeometry>
        </mxCell>
        <mxCell id="I7wylD6VoUPrIZBw90Hd-24" style="edgeStyle=orthogonalEdgeStyle;rounded=0;orthogonalLoop=1;jettySize=auto;html=1;entryX=0;entryY=0.5;entryDx=0;entryDy=0;" edge="1" parent="1" source="I7wylD6VoUPrIZBw90Hd-7" target="r9TCEUBcotQIVBJyixz0-65">
          <mxGeometry relative="1" as="geometry">
            <Array as="points">
              <mxPoint x="380" y="920" />
            </Array>
          </mxGeometry>
        </mxCell>
        <mxCell id="I7wylD6VoUPrIZBw90Hd-25" value="1" style="edgeLabel;html=1;align=center;verticalAlign=middle;resizable=0;points=[];" vertex="1" connectable="0" parent="I7wylD6VoUPrIZBw90Hd-24">
          <mxGeometry x="0.1238" y="1" relative="1" as="geometry">
            <mxPoint as="offset" />
          </mxGeometry>
        </mxCell>
      </root>
    </mxGraphModel>
  </diagram>
</mxfile>
